<?xml version="1.0" encoding="utf-8"?>
<!-- Generator: Adobe Illustrator 26.0.1, SVG Export Plug-In . SVG Version: 6.00 Build 0)  -->
<svg version="1.1" id="Layer_1" xmlns="http://www.w3.org/2000/svg" xmlns:xlink="http://www.w3.org/1999/xlink" x="0px" y="0px"
	 viewBox="0 0 158 40" style="enable-background:new 0 0 158 40;" xml:space="preserve">
<style type="text/css">
	.st0{fill:none;}
	.st1{fill:#FFFFFF;}
	.st2{fill:url(#SVGID_1_);}
</style>
<g>
	<g>
		<path class="st0" d="M22.81,6.16l1.16,2.01l3.8,6.59c0.22,0,0.44,0,0.66,0c0.42,0,0.85,0,1.27,0.01l-6.9-11.95l-7.53,13.04
			c0.7-0.12,1.41-0.24,2.13-0.34l4.24-7.35L22.81,6.16z"/>
		<path class="st0" d="M31.43,23.75l-2.6-4.51c-5.89,0.89-10.96,2.48-14.61,4.51H31.43z"/>
		<path class="st1" d="M22.81,8.84l4.19,7.27c0.47-0.01,0.95-0.01,1.43-0.01c1.23,0,2.44,0.03,3.63,0.08L22.81,0.14L12.65,17.76
			c1.77-0.4,3.64-0.74,5.6-1L22.81,8.84z M15.28,15.86l7.53-13.04l6.9,11.95c-0.42-0.01-0.85-0.01-1.27-0.01c-0.22,0-0.44,0-0.66,0
			l-3.8-6.59l-1.16-2.01l-1.16,2.01l-4.24,7.35C16.69,15.62,15.98,15.74,15.28,15.86z"/>
		<linearGradient id="SVGID_1_" gradientUnits="userSpaceOnUse" x1="1.4996" y1="28.6028" x2="48.9844" y2="28.6028">
			<stop  offset="0" style="stop-color:#FD2411"/>
			<stop  offset="0.3127" style="stop-color:#DE170C"/>
			<stop  offset="0.7643" style="stop-color:#B70606"/>
			<stop  offset="1" style="stop-color:#A80004"/>
		</linearGradient>
		<path class="st2" d="M16.58,40.14c-5.25-2.3-8.45-5.39-8.45-8.78c0-1.13,0.35-2.22,1.02-3.27h29.81l-5.43-9.4
			c2.07-0.17,4.21-0.26,6.4-0.26c2.95,0,5.81,0.16,8.52,0.47c-0.16-0.05-0.32-0.1-0.48-0.15c0.16,0.05,0.32,0.1,0.48,0.15
			c0.18,0.02,0.36,0.04,0.54,0.06c-0.48-0.12-0.96-0.24-1.46-0.35c0,0,0,0,0,0c-4.43-0.99-9.52-1.55-14.94-1.56
			c-0.03,0-0.06,0-0.1,0c-1.23,0-2.45,0.03-3.65,0.09c-0.4,0.02-0.8,0.04-1.19,0.07h0h0c-3.78,0.24-7.33,0.75-10.52,1.48
			c-0.28,0.06-0.55,0.13-0.82,0.19c-1.89,0.47-3.65,1.01-5.25,1.62c-5.89,2.26-9.56,5.44-9.56,8.97
			C1.5,34.01,7.54,37.97,16.58,40.14z M28.82,19.24l2.6,4.51H14.22C17.86,21.72,22.93,20.14,28.82,19.24z"/>
	</g>
	<g>
		<path class="st1" d="M59.8,10.3c4.51,11.28,6.77,16.97,6.77,17.07c0,0.29-0.25,0.51-0.54,0.51H62.6c-0.41,0-0.67-0.19-0.83-0.57
			l-0.86-2.51c-0.06-0.13-0.25-0.25-0.38-0.25h-7.22c-0.13,0-0.35,0.13-0.38,0.25l-0.86,2.51c-0.1,0.22-0.22,0.38-0.45,0.48
			c-0.13,0.06-0.25,0.1-0.38,0.1h-3.4c-0.19,0-0.35-0.06-0.45-0.16c-0.1-0.1-0.13-0.22-0.13-0.35c0-0.1,0-0.16,0.03-0.25l6.74-16.82
			c0.16-0.38,0.44-0.57,0.86-0.57h4.04C59.36,9.73,59.65,9.92,59.8,10.3z M56.88,13.35c-2,5.31-2.99,7.98-2.99,8.01h6.07
			C60,21.33,58.95,18.66,56.88,13.35z"/>
		<path class="st1" d="M74.46,10.46l4.45,12.49l4.45-12.49c0.16-0.38,0.41-0.57,0.83-0.6h1.62c0.41,0.03,0.67,0.22,0.83,0.6
			l4.45,12.49l4.45-12.49c0.1-0.29,0.29-0.45,0.57-0.54c0.1-0.03,0.92-0.06,2.54-0.06c0.35,0,0.6,0.25,0.57,0.54
			c0,0.1-1.97,5.69-5.88,16.85c-0.06,0.16-0.16,0.29-0.32,0.41c-0.16,0.1-0.35,0.16-0.54,0.16h-2.8c-0.41,0-0.7-0.19-0.86-0.57
			l-3.85-9.98l-3.81,9.98c-0.16,0.38-0.45,0.57-0.86,0.57h-2.8c-0.41,0-0.7-0.19-0.86-0.57c-3.94-11.16-5.91-16.75-5.91-16.85
			c0-0.22,0.1-0.35,0.29-0.44c0.1-0.06,0.19-0.1,0.32-0.1h2.26C74.01,9.88,74.3,10.08,74.46,10.46z"/>
		<path class="st1" d="M106.47,9.82h2.35c0.38,0,0.7,0.32,0.7,0.7v16.62c0,0.38-0.32,0.7-0.7,0.7h-2.35c-0.41,0-0.73-0.32-0.73-0.7
			V10.52C105.74,10.14,106.05,9.82,106.47,9.82z"/>
		<path class="st1" d="M125.22,28.29c-2.96,0-5.53-0.76-7.69-2.29c-0.19-0.16-0.29-0.32-0.29-0.51c0-0.16,0.1-0.35,0.25-0.57
			l1.37-1.62c0.16-0.19,0.35-0.29,0.54-0.32c0.13,0.03,0.32,0.1,0.54,0.25c1.72,1.11,3.53,1.65,5.47,1.65
			c1.53,0,2.64-0.57,2.64-1.84c0-0.6-0.32-1.08-0.92-1.43c-0.73-0.41-2.26-0.83-3.56-1.08c-0.67-0.13-1.37-0.32-2.1-0.6
			c-2.07-0.79-3.78-1.94-3.78-4.67v-0.06c0-1.75,0.64-3.15,1.91-4.13c1.3-0.99,2.96-1.49,4.96-1.49c2.61,0,4.83,0.6,6.71,1.81
			c0.16,0.13,0.22,0.29,0.25,0.51c0,0.1-0.03,0.19-0.1,0.29l-1.46,2.07c-0.22,0.29-0.51,0.35-0.86,0.13
			c-1.56-0.92-3.12-1.37-4.67-1.37c-0.83,0-1.46,0.19-1.88,0.57c-0.35,0.29-0.51,0.7-0.51,1.18c0.03,1.27,0.99,1.72,3.66,2.32
			c2.42,0.54,4.13,1.21,5.15,2c1.05,0.83,1.59,2,1.59,3.5c0,1.21-0.32,2.26-0.95,3.12C130.28,27.43,128.18,28.29,125.22,28.29z"/>
		<path class="st1" d="M155.8,27.91h-2.38c-0.38,0-0.7-0.32-0.7-0.7v-6.2c0-0.13-0.06-0.19-0.19-0.19h-8.84
			c-0.16,0-0.22,0.06-0.22,0.19v6.2c0,0.38-0.29,0.7-0.7,0.7h-2.35c-0.38,0-0.7-0.32-0.7-0.7V10.62c0-0.38,0.32-0.7,0.7-0.7h2.35
			c0.41,0,0.7,0.32,0.7,0.7v6.2c0,0.16,0.06,0.22,0.22,0.22h8.84c0.13,0,0.19-0.06,0.19-0.22c0-4.2,0-6.33,0.03-6.42
			c0.1-0.32,0.32-0.48,0.67-0.48h2.38c0.38,0,0.7,0.32,0.7,0.7v16.59C156.5,27.62,156.18,27.91,155.8,27.91z"/>
	</g>
</g>
</svg>
