<?xml version="1.0" encoding="utf-8"?>
<!-- Generator: Adobe Illustrator 26.0.1, SVG Export Plug-In . SVG Version: 6.00 Build 0)  -->
<svg version="1.1" id="Layer_1" xmlns="http://www.w3.org/2000/svg" xmlns:xlink="http://www.w3.org/1999/xlink" x="0px" y="0px"
	 viewBox="0 0 158 40" style="enable-background:new 0 0 158 40;" xml:space="preserve">
<style type="text/css">
	.st0{fill:none;}
	.st1{fill:url(#SVGID_1_);}
	.st2{fill:url(#SVGID_00000031929360175322160700000015915646173352681608_);}
</style>
<g>
	<g>
		<path class="st0" d="M23.04,6.22l1.15,2l3.79,6.56c0.22,0,0.44,0,0.66,0c0.42,0,0.85,0,1.27,0.01l-6.87-11.9l-7.5,12.99
			c0.7-0.12,1.4-0.24,2.12-0.34l4.23-7.32L23.04,6.22z"/>
		<path class="st0" d="M31.62,23.74l-2.59-4.49c-5.87,0.89-10.92,2.47-14.55,4.49H31.62z"/>
		<linearGradient id="SVGID_1_" gradientUnits="userSpaceOnUse" x1="12.9131" y1="8.9964" x2="32.2584" y2="8.9964">
			<stop  offset="0" style="stop-color:#363636"/>
			<stop  offset="0.5153" style="stop-color:#1C1C1C"/>
			<stop  offset="1" style="stop-color:#000000"/>
		</linearGradient>
		<path class="st1" d="M23.04,8.88l4.18,7.24c0.47-0.01,0.95-0.01,1.42-0.01c1.22,0,2.43,0.03,3.62,0.08L23.04,0.23L12.91,17.77
			c1.76-0.4,3.62-0.74,5.58-1L23.04,8.88z M15.54,15.88l7.5-12.99l6.87,11.9c-0.42-0.01-0.85-0.01-1.27-0.01c-0.22,0-0.44,0-0.66,0
			l-3.79-6.56l-1.15-2l-1.15,2l-4.23,7.32C16.95,15.64,16.24,15.76,15.54,15.88z"/>
		
			<linearGradient id="SVGID_00000172407063405594015370000003054912563110661539_" gradientUnits="userSpaceOnUse" x1="1.8121" y1="28.5687" x2="49.1055" y2="28.5687">
			<stop  offset="0" style="stop-color:#FD2411"/>
			<stop  offset="0.3127" style="stop-color:#DE170C"/>
			<stop  offset="0.7643" style="stop-color:#B70606"/>
			<stop  offset="1" style="stop-color:#A80004"/>
		</linearGradient>
		<path style="fill:url(#SVGID_00000172407063405594015370000003054912563110661539_);" d="M16.83,40.06
			c-5.22-2.3-8.42-5.37-8.42-8.74c0-1.12,0.35-2.21,1.02-3.25h29.69l-5.41-9.37c2.06-0.17,4.19-0.26,6.37-0.26
			c2.94,0,5.79,0.16,8.49,0.47c-0.16-0.05-0.32-0.1-0.47-0.15c0.16,0.05,0.32,0.1,0.47,0.15c0.18,0.02,0.36,0.04,0.54,0.06
			c-0.48-0.12-0.96-0.24-1.45-0.35c0,0,0,0,0,0c-4.41-0.98-9.48-1.55-14.88-1.55c-0.03,0-0.06,0-0.1,0c-1.23,0-2.44,0.03-3.63,0.09
			c-0.4,0.02-0.79,0.04-1.18,0.07h0h0c-3.76,0.24-7.3,0.74-10.48,1.47c-0.27,0.06-0.55,0.13-0.82,0.19
			c-1.89,0.46-3.64,1.01-5.23,1.62c-5.87,2.25-9.52,5.42-9.52,8.94C1.81,33.96,7.83,37.9,16.83,40.06z M29.02,19.25l2.59,4.49H14.48
			C18.11,21.71,23.15,20.14,29.02,19.25z"/>
	</g>
	<g>
		<path d="M59.88,10.34c4.5,11.24,6.74,16.91,6.74,17c0,0.28-0.25,0.51-0.54,0.51h-3.42c-0.41,0-0.66-0.19-0.82-0.57l-0.85-2.5
			c-0.06-0.13-0.25-0.25-0.38-0.25h-7.19c-0.13,0-0.35,0.13-0.38,0.25l-0.85,2.5c-0.1,0.22-0.22,0.38-0.44,0.47
			c-0.13,0.06-0.25,0.09-0.38,0.09h-3.39c-0.19,0-0.35-0.06-0.44-0.16c-0.09-0.1-0.13-0.22-0.13-0.35c0-0.1,0-0.16,0.03-0.25
			l6.71-16.75c0.16-0.38,0.44-0.57,0.85-0.57h4.02C59.44,9.77,59.72,9.96,59.88,10.34z M56.97,13.38c-1.99,5.29-2.98,7.95-2.98,7.98
			h6.05C60.07,21.32,59.03,18.66,56.97,13.38z"/>
		<path d="M74.48,10.5l4.43,12.44l4.43-12.44c0.16-0.38,0.41-0.57,0.82-0.6h1.61c0.41,0.03,0.66,0.22,0.82,0.6l4.43,12.44
			l4.43-12.44c0.1-0.28,0.28-0.44,0.57-0.54c0.09-0.03,0.92-0.06,2.53-0.06c0.35,0,0.6,0.25,0.57,0.54c0,0.1-1.96,5.67-5.86,16.78
			c-0.06,0.16-0.16,0.28-0.32,0.41c-0.16,0.09-0.35,0.16-0.54,0.16h-2.79c-0.41,0-0.7-0.19-0.85-0.57l-3.83-9.94l-3.8,9.94
			c-0.16,0.38-0.44,0.57-0.85,0.57h-2.79c-0.41,0-0.7-0.19-0.85-0.57c-3.93-11.11-5.89-16.68-5.89-16.78c0-0.22,0.1-0.35,0.28-0.44
			c0.1-0.06,0.19-0.1,0.32-0.1h2.25C74.03,9.93,74.32,10.12,74.48,10.5z"/>
		<path d="M106.36,9.86h2.34c0.38,0,0.7,0.32,0.7,0.7v16.56c0,0.38-0.32,0.7-0.7,0.7h-2.34c-0.41,0-0.73-0.32-0.73-0.7V10.56
			C105.63,10.18,105.95,9.86,106.36,9.86z"/>
		<path d="M125.04,28.26c-2.94,0-5.51-0.76-7.66-2.28c-0.19-0.16-0.28-0.32-0.28-0.51c0-0.16,0.09-0.35,0.25-0.57l1.36-1.61
			c0.16-0.19,0.35-0.28,0.54-0.32c0.13,0.03,0.32,0.09,0.54,0.25c1.71,1.11,3.51,1.65,5.45,1.65c1.52,0,2.63-0.57,2.63-1.84
			c0-0.6-0.32-1.08-0.92-1.42c-0.73-0.41-2.25-0.82-3.55-1.08c-0.66-0.13-1.36-0.32-2.09-0.6c-2.06-0.79-3.77-1.93-3.77-4.65v-0.06
			c0-1.74,0.63-3.13,1.9-4.12c1.3-0.98,2.94-1.49,4.94-1.49c2.6,0,4.81,0.6,6.68,1.8c0.16,0.13,0.22,0.28,0.25,0.51
			c0,0.1-0.03,0.19-0.1,0.28l-1.46,2.06c-0.22,0.28-0.51,0.35-0.85,0.13c-1.55-0.92-3.1-1.36-4.65-1.36c-0.82,0-1.46,0.19-1.87,0.57
			c-0.35,0.28-0.51,0.7-0.51,1.17c0.03,1.27,0.98,1.71,3.64,2.31c2.41,0.54,4.12,1.2,5.13,1.99c1.04,0.82,1.58,1.99,1.58,3.48
			c0,1.2-0.32,2.25-0.95,3.1C130.07,27.4,127.98,28.26,125.04,28.26z"/>
		<path d="M155.49,27.88h-2.37c-0.38,0-0.7-0.32-0.7-0.7v-6.17c0-0.13-0.06-0.19-0.19-0.19h-8.8c-0.16,0-0.22,0.06-0.22,0.19v6.17
			c0,0.38-0.28,0.7-0.7,0.7h-2.34c-0.38,0-0.7-0.32-0.7-0.7V10.65c0-0.38,0.32-0.7,0.7-0.7h2.34c0.41,0,0.7,0.32,0.7,0.7v6.17
			c0,0.16,0.06,0.22,0.22,0.22h8.8c0.13,0,0.19-0.06,0.19-0.22c0-4.18,0-6.3,0.03-6.4c0.09-0.32,0.32-0.47,0.66-0.47h2.37
			c0.38,0,0.7,0.32,0.7,0.7v16.53C156.19,27.59,155.87,27.88,155.49,27.88z"/>
	</g>
</g>
</svg>
